<?xml version="1.0" encoding="UTF-8"?>
<svg id="Layer_1" data-name="Layer 1" xmlns="http://www.w3.org/2000/svg" viewBox="0 0 987.98 311.37">
  <defs>
    <style>
      .cls-1 {
        fill: #fff;
      }
    </style>
  </defs>
  <path class="cls-1" d="m491.24,308.02c.96-.64,1.72-1.36,2.62-1.73,6.85-2.79,10.41-8.45,13.31-14.8,2.02-4.41,2.41-9.01,2.4-13.75-.02-36.45,0-72.89-.03-109.34,0-5.05-.22-10.11-.33-15.16,0-.27,0-.54-.04-.8-1.46-7.56-2.24-15.24-4.78-22.59-1.78-5.14-3.82-10.15-6.93-14.6-7.27-10.39-17.21-14.91-29.88-13.14-9.24,1.29-16.78,5.93-23.57,12-7.46,6.66-13.06,14.73-17.07,23.82-1.73,3.93-3.07,8.07-3.51,12.48-.71,7.16-1,14.32-.99,21.51.05,34.76,0,69.52.06,104.28,0,3,.17,6.06.75,8.99,1.86,9.45,7.11,16.44,15.83,20.71,1.17.57,2.48.97,3.07,2.39-.79,1.42-2.14,1.15-3.3,1.15-3.01.01-6.03-.12-9.04-.12-18.62,0-37.24.03-55.86.04-1.12,0-2.34.2-3.2-1.04.19-1.53,1.54-2,2.65-2.62,4.18-2.33,7.72-5.37,10.39-9.34,2.75-4.09,4.85-8.45,4.94-13.53.06-2.92.26-5.85.26-8.77.02-46.38.02-92.75,0-139.13,0-3.99-.15-7.99-.52-11.95-.45-4.72-2-8.98-6.23-11.79-.62-.41-1.09-1.06-1.55-1.52.44-1.4,1.44-1.27,2.27-1.38,9.93-1.33,18.99-5.07,27.48-10.18,2.62-1.57,4.75-3.95,7.11-5.95.81-.68,1.57-1.47,2.49-1.95,1.21-.64,2.03-.15,2.29,1.23.13.69.1,1.41.1,2.12.03,9.13.07,18.27.07,27.4,0,1.77-.18,3.54-.25,5.31-.03.84,0,1.68,0,2.72,2.04-.22,2.74-1.45,3.46-2.64,3.79-6.25,8.2-12.02,13.57-16.98,6.45-5.96,13.66-10.76,22.22-13.16,8.59-2.41,17.31-2.58,26.11-1.39,6.54.89,12.92,2.3,18.92,5.08,11.48,5.31,19.86,13.77,25.17,25.25,1.04,2.25,1.92,2.33,3.5.22,2.97-3.97,5.73-8.11,8.95-11.87,6.7-7.8,14.75-13.8,24.68-16.92,2.86-.9,5.84-1.59,8.82-1.93,12.74-1.47,25.19-.05,36.95,5.16,8.66,3.83,15.83,9.71,21.11,17.71,4.23,6.4,7.32,13.27,9.56,20.64,3.32,10.92,4.19,22.08,4.2,33.37.04,35.74.04,71.47,0,107.21-.01,9.21,3.31,16.94,9.87,23.3,1.58,1.53,3.51,2.68,5.26,4.04.81.63,2.03,1.14,1.51,2.47-.44,1.11-1.6.93-2.56.93-19.51-.04-39.01-.08-58.52-.15-1.16,0-2.79.47-3.18-1.11-.33-1.34,1.12-1.89,2.05-2.47,5.71-3.55,9.73-8.53,12.07-14.76.98-2.62,1.56-5.48,1.8-8.28.66-7.77,1.47-15.56,1.48-23.34.04-25.89-.2-51.78-.45-77.68-.07-7.8-.31-15.61-.83-23.39-.59-8.85-1.58-17.68-4.12-26.22-1.81-6.11-4.02-12.1-7.83-17.35-7.22-9.94-16.93-14.17-29.11-12.72-10.74,1.28-19.31,6.72-26.68,14.24-4.79,4.9-8.84,10.4-11.69,16.69-.29.64-.65,1.27-1.05,1.85-.98,1.43-1.14,2.95-.62,4.56,3.6,11.01,4.35,22.38,4.34,33.86-.04,35.2,0,70.41-.04,105.61,0,4.41.6,8.58,2.34,12.69,2.37,5.58,6.08,9.92,10.94,13.41.93.67,1.87,1.37,2.61,2.23.85.98.48,1.86-.78,2.12-.6.12-1.23.1-1.85.1-19.6,0-39.19,0-58.79-.03-1.42,0-3.01.38-4.4-1.34Z"/>
  <path class="cls-1" d="m898.94,309.6c-.93.1-1.76.27-2.59.26-21.72-.15-43.45-.32-65.17-.48-.35,0-.75.09-1.06-.03-.77-.3-1.5-.69-2.25-1.05.44-.71.76-1.56,1.35-2.11,1.35-1.27,3.04-2.23,4.21-3.63,1.04-1.24,1.96-2.84,2.25-4.4.91-4.96.76-9.94-1.54-14.57-2.37-4.76-4.84-9.46-7.44-14.09-5.25-9.35-10.57-18.66-15.95-27.93-6.77-11.65-13.64-23.23-20.44-34.86-3.53-6.04-7.01-12.12-10.51-18.19-.22-.38-.42-.78-.67-1.15-1.13-1.7-1.8-1.77-3.36-.34-8.02,7.39-16.01,14.8-24.06,22.15-1.43,1.3-1.99,2.72-1.99,4.66.05,21.19.08,42.39,0,63.58-.03,7.74,2.41,14.63,6.7,20.93,2.42,3.55,5.68,6.02,9.98,7.03,1.75.41,3.66.74,5.16,2.64-.74.36-1.28.78-1.88.87-1.04.16-2.12.16-3.18.15-20.04-.05-40.08-.11-60.12-.16-1.77,0-3.55.09-5.32.12-.62,0-1.27.04-1.84-.15-.45-.14-1.03-.54-1.13-.93-.1-.38.23-1.01.56-1.33.51-.47,1.16-.81,1.79-1.13,6.21-3.12,10.65-8,13.38-14.26,1.58-3.62,2.86-7.45,2.83-11.54-.03-4.08.02-8.16.02-12.24,0-74.22,0-148.45,0-222.67,0-5.23-.18-10.44-1.95-15.49-.88-2.5-2.08-4.67-4.05-6.43-.46-.41-.96-.81-1.32-1.3-.75-1.04-.48-1.8.72-2.26.25-.09.52-.12.77-.19,4.03-1.01,8.2-1.67,12.06-3.12,4.71-1.77,9.27-4,13.7-6.4,4.21-2.28,8.1-5.11,11.04-9.03.19-.25.57-.37.85-.54,1.45.63,1.3,1.85,1.3,2.97,0,8.34-.02,16.67-.01,25.01.02,53.74.05,107.48.06,161.22,0,2.21-.12,4.43-.18,6.64-.01.44-.15.93-.02,1.32.24.7.5,1.51,1.03,1.94.21.18,1.26-.39,1.72-.83,3.86-3.65,7.64-7.4,11.52-11.04,10.99-10.31,21.99-20.62,33.04-30.87,15.01-13.93,30.07-27.81,45.12-41.69,11.73-10.82,23.5-21.59,35.2-32.44,3.31-3.07,6.42-6.36,9.63-9.55,4.37-4.33,9.1-8.28,14.65-10.93,13.11-6.27,26.64-8.85,40.99-4.31,4.52,1.43,8.75,3.34,12.92,5.49,1.96,1.01,2.39,2.15,1.26,4.11-1.46,2.53-3.11,4.95-4.69,7.41-3.21,4.99-6.43,9.98-9.62,14.98-1.1,1.73-1.92,1.79-3.11,0-1.13-1.69-2.06-3.52-3.26-5.16-3.41-4.62-7.58-8.39-12.59-11.26-6.67-3.81-13.69-4.33-20.79-1.88-4.88,1.68-9.16,4.64-12.91,8.25-8.62,8.3-17.19,16.66-25.88,24.89-11.53,10.9-23.19,21.67-34.75,32.54-7.04,6.62-13.99,13.33-20.99,20-1.41,1.35-2.83,2.69-4.28,3.99-2.02,1.82-2.17,2.6-.75,5.04,2.72,4.68,5.5,9.31,8.17,14.02,4.68,8.25,9.29,16.53,13.93,24.8,3.64,6.49,7.29,12.98,10.92,19.48,6.13,10.99,12.22,22,18.38,32.97,3.42,6.1,6.75,12.28,10.47,18.2,5.7,9.06,12.59,17.15,21.12,23.71,3.36,2.59,6.94,4.9,10.43,7.33,1.06.74,2.3,1.34,2.41,3.25Z"/>
  <path class="cls-1" d="m324.23,220.06c0,20.57-.06,41.14.05,61.71.02,3.79.38,7.63,1.12,11.34,1.5,7.51,6.89,8.94,13.03,7.37.68-.17,1.32-.53,2-.72,1.37-.38,2.67.1,3.22,1.16.59,1.13.18,2.12-.64,2.88-4.05,3.75-8.62,6.72-14.2,7.22-4.48.4-9.09.53-13.52-.08-7.45-1.02-13.94-4.21-17.9-11.02-1.5-2.57-2.73-5.41-3.5-8.28-1.49-5.57-2.47-11.25-2.55-17.06-.01-.92.19-2.25-1.08-2.36-.63-.05-1.58.75-1.98,1.41-3.71,6.16-8.7,11.15-14.07,15.84-9.73,8.49-20.89,14.39-33.31,17.62-9.62,2.5-19.46,3.71-29.5,2.17-6.15-.94-12.26-1.81-18.07-4.17-9.83-4-18.35-9.62-24.11-18.8-2.03-3.24-3.58-6.66-4.83-10.31-2.64-7.71-2.5-15.58-1.44-23.41,1.03-7.56,4.16-14.39,8.8-20.55,6.16-8.17,14.07-14.2,22.93-19.06,12.47-6.84,25.72-11.89,39.15-16.48,6.2-2.12,12.51-3.97,18.64-6.3,10.48-3.98,20.52-8.81,28.89-16.54,3.65-3.37,6.66-7.23,8.34-11.85,1.04-2.85,1.54-6.07,1.5-9.11-.07-5.04-.24-10.18-1.32-15.07-2.39-10.84-6.92-20.66-15.85-27.88-6.97-5.63-14.98-8.79-23.84-9.56-18.14-1.57-32.53,5.46-43.37,19.83-4.89,6.49-7.19,13.97-6.89,22.17.01.35.07.71.07,1.06,0,2.32-.71,2.94-2.9,2.39-4.39-1.09-8.76-2.24-13.14-3.36-2.15-.55-4.29-1.12-6.44-1.65-2.72-.68-3.26-1.85-1.83-4.17,2.19-3.54,4.31-7.13,6.65-10.57,6.91-10.13,16.3-17.37,27.04-23.05,5.62-2.97,11.61-4.93,17.73-6.32,6.04-1.37,12.23-2.09,18.47-1.96,10.67.22,21.25,1.14,31.56,4.06,12.38,3.51,23.24,9.59,31.75,19.41,5.89,6.8,9.98,14.64,12.43,23.27,2.59,9.13,2.9,18.54,2.95,27.95.08,16.93.02,33.87.02,50.8h-.04Zm-32.9-7.08h0c0-10.73,0-21.45,0-32.18,0-.44.09-.92-.04-1.32-.24-.71-.46-1.67-.99-1.98-.94-.53-1.56.37-2.15,1.06-1.32,1.55-2.54,3.21-4.04,4.57-5.42,4.9-11.56,8.83-18.02,12.17-8.73,4.52-17.64,8.7-26.42,13.13-6.96,3.51-13.85,7.14-20.15,11.82-8.11,6.02-14.22,13.49-17.68,23.04-3.61,9.95-4.36,20.07-1.44,30.28.84,2.92,2.34,5.77,4.05,8.3,4.67,6.88,11.6,10.26,19.61,11.46,9.51,1.42,18.75-.12,27.7-3.33,10.86-3.89,20.25-10.13,28.1-18.61,7.54-8.15,11.54-17.71,11.5-28.89-.04-9.84,0-19.68,0-29.52Z"/>
  <path class="cls-1" d="m52.92,126.22c.63-.78,1.42-1.47,1.85-2.35,3.88-7.79,9.4-14.14,16.49-19.15,4.16-2.95,8.66-5.15,13.64-6.39,4.91-1.22,9.82-2.24,14.94-2.31,8.13-.11,15.93,1.5,23.3,4.69,8.6,3.72,15.73,9.52,21.51,16.95,4.42,5.68,7.29,12.13,9.64,18.85.85,2.43.3,3.4-2.26,4.04-6.62,1.64-13.26,3.24-19.89,4.85-.09.02-.17.04-.26.06-3.01.7-4.81.02-3.36-3.62,1.74-4.37,1.95-9.06.76-13.61-.92-3.49-2.05-6.99-3.65-10.21-4.75-9.57-13.07-14.18-23.3-15.54-6.39-.85-12.72-.37-18.84,2.03-8.4,3.29-14.32,9.32-18.93,16.83-5.07,8.26-7.81,17.4-9.75,26.81-.07.35-.11.7-.2,1.04-2.43,9.63-2.83,19.44-2.82,29.31.03,32.63,0,65.27,0,97.9,0,1.42,0,2.84.06,4.26.44,10.15,5.4,17.78,13.36,23.67,1.19.88,2.72,1.29,4.03,2.03.87.49,1.62,1.17,2.37,1.73-.65,1.54-1.74,1.32-2.66,1.33-2.3.02-4.61-.09-6.92-.09-19.51.02-39.02.05-58.53.06-1.21,0-2.51.23-3.51-.92-.05-1.45,1.15-1.88,2.11-2.39,4.55-2.43,8.29-5.74,11.13-10.05,2.41-3.66,4.5-7.44,4.72-11.96.12-2.57.34-5.13.35-7.7.02-47.53.03-95.06-.02-142.59,0-4.07-.32-8.15-.7-12.21-.38-4.06-2.22-7.41-5.52-9.92-.86-.66-2.09-1.1-2.03-2.72.56-.19,1.11-.52,1.67-.54,4.96-.22,9.56-1.94,14.12-3.62,4.06-1.5,7.94-3.51,11.86-5.36,3.68-1.73,6.53-4.54,9.37-7.35.75-.74,1.53-1.5,2.41-2.06.94-.6,1.73-.26,2.04.83.21.75.25,1.58.25,2.37,0,10.02-.05,20.04-.05,30.05,0,.91.22,1.83.33,2.74.29.09.58.17.87.26Z"/>
  <path class="cls-1" d="m924.64,108.66c1.26-.34,1.97-.62,2.71-.73,11.94-1.74,22.58-6.56,32.19-13.73,1.55-1.16,2.85-2.65,4.29-3.97.63-.58,1.3-1.1,2.33-1.98.41,1.09.83,1.75.9,2.45.13,1.41.08,2.83.08,4.25.01,57.82.02,115.64.03,173.45,0,3.28,0,6.56-.02,9.84-.06,8.34,2.87,15.59,8.04,22.01,1.96,2.44,4.52,3.93,7.46,4.86,1.1.35,2.22.67,3.25,1.16.72.34,1.32.94,2.09,1.51-1.28,1.47-2.67,1.25-3.95,1.25-5.5,0-10.99-.06-16.49-.06-15.78-.01-31.57,0-47.35-.03-1.28,0-2.98.38-3.44-1.24-.39-1.36,1.05-2.11,1.95-2.92.8-.7,1.68-1.3,2.54-1.93,4.38-3.2,7.79-7.18,10.15-12.09,1.3-2.7,1.86-5.54,2.07-8.47.13-1.77.14-3.54.14-5.32,0-47.71.02-95.42-.02-143.13,0-3.72-.26-7.44-.57-11.15-.41-4.82-2.53-8.8-6.34-11.85-.64-.51-1.13-1.21-2.03-2.21Z"/>
</svg>