<?xml version="1.0" encoding="UTF-8"?>
<svg id="Layer_1" data-name="Layer 1" xmlns="http://www.w3.org/2000/svg" viewBox="0 0 985.47 353.39">
  <defs>
    <style>
      .cls-1 {
        fill: #fff;
      }
    </style>
  </defs>
  <polygon class="cls-1" points="157.15 279.33 180.88 75.21 135.47 75.21 157.15 279.33"/>
  <g>
    <path class="cls-1" d="m373.87,109.19h40.71v91.58c1.4-1.19,2.17-1.76,2.85-2.44,27.32-26.92,54.72-53.74,81.82-80.87,3.72-3.72,7.39-3.17,12.35-3.15-1.28,1.43-2,2.3-2.78,3.1-14,14.47-27.95,28.99-42.06,43.36-2,2.03-2.34,3.33-.77,5.88,21.7,35.29,43.27,70.67,64.87,106.03.54.88,1,1.81,1.67,3.03-1.27.08-2.19.19-3.11.19-13.93.01-27.87-.05-41.8.07-2.25.02-3.43-.77-4.56-2.61-15.63-25.58-31.33-51.12-47.01-76.67-.66-1.08-1.33-2.16-2.27-3.68-3.43,3.32-6.33,6.83-9.89,9.43-7.64,5.56-9.94,12.56-9.43,21.98.85,15.69.23,31.46.23,47.2,0,1.27,0,2.53,0,4.04h-40.84V109.19Z"/>
    <path class="cls-1" d="m735.21,275.75h-40.77V114.49c.74-.09,1.55-.26,2.37-.27,11.79-.02,23.58.05,35.37-.07,2.43-.02,3.17.73,3.08,3.11-.16,4.57-.05,9.14-.05,14.68,1.39-1.29,2.13-1.94,2.83-2.63,18.74-18.74,41.32-22.57,65.88-15.61,18.81,5.33,33.47,24.85,34.99,44.33.25,3.2.39,6.41.39,9.62.03,34.79.02,69.58.02,104.37v3.66h-41.24c0-1.35,0-2.69,0-4.03,0-36.72-.05-73.43.04-110.15.02-9.27-1.92-17.8-7.64-25.29-12.13-15.89-34.69-16.05-47.04-.31-5.72,7.29-8.25,15.61-8.23,24.8.02,11.03,0,22.05,0,33.08,0,25.91,0,51.81,0,77.72v4.23Z"/>
    <path class="cls-1" d="m676.5,275.78h-41.13v-20.7c-1.85,2.24-2.99,3.72-4.23,5.11-17.56,19.63-50.02,25.42-73.13,12.74-12.24-6.72-21.29-16.65-24.3-30.47-3.78-17.36,1.62-32.17,16.13-42.69,6.33-4.59,13.65-7.92,20.81-11.22,11.37-5.23,23.11-9.66,34.42-15,8.17-3.86,15.43-9.27,21.45-16.13,5.28-6.03,8.35-12.87,7.52-21.13-.67-6.62-3.8-11.79-9.86-14.37-13.87-5.9-27.91-6.05-41.69.43-2.23,1.05-4.24,2.93-5.84,4.85-1.78,2.14-1.05,3.93,1.48,5.08,8.16,3.71,10.88,8.85,9.06,17.7-2.21,10.75-8.65,17.74-19.32,20.53-8.12,2.12-14.5-1.58-16.95-9.61-2.01-6.62-1.25-13.19,1.12-19.53,5.84-15.62,17.15-25.84,33.17-29.47,19.74-4.47,39.54-2.95,58.37,4.76,20.31,8.31,30.73,24.14,32.48,45.82.27,3.3.42,6.63.42,9.94.03,33.19.02,66.37.02,99.56v3.79Zm-42.58-107.14c-3.63,2.81-6.86,5.83-10.57,8.06-9.16,5.51-18.45,10.83-27.86,15.89-8.58,4.61-14.85,11.1-18.36,20.18-5.13,13.24-4.31,26.15,2.2,38.76,9.92,19.2,33.17,16.1,41.54,4.43,2.96-4.13,5.64-8.6,7.61-13.26,3.48-8.23,5.06-17.05,5.3-25.95.41-15.39.34-30.8.45-46.2,0-.59-.19-1.19-.31-1.91Z"/>
    <path class="cls-1" d="m358.62,188.04c-2.08,0-3.45,0-4.82,0-35.79,0-71.58,0-107.37,0-4.23,0-4.3,0-4.35,4.2-.17,13.49,1.7,26.59,6.47,39.34,14.57,38.92,62.12,36.65,80.9,17.11,9.57-9.96,16.29-21.45,20.48-34.45,1.08-3.36,2.63-4.55,6.3-3.45-.38,1.77-.71,3.61-1.17,5.42-6.21,24.02-18.68,43.77-41.49,54.77-47.71,23.01-96.88-3.95-108.79-50.76-6.99-27.5-3.74-54.11,13.14-77.84,16.6-23.35,39.66-33.72,68.16-32.5,19.35.83,36.6,6.63,50.27,20.94,11.7,12.26,18.16,27.07,20.71,43.67.66,4.31,1.02,8.66,1.58,13.55Zm-116.05-8.14c.92.13,1.43.27,1.94.27,23.36.01,46.72-.01,70.08.06,2.29,0,2.78-1,2.56-2.92-1.04-8.91-1.67-17.9-3.23-26.72-1.47-8.29-4.93-15.93-10.39-22.51-11.69-14.1-28.83-14.77-41.07-1.27-13.52,14.92-18.41,33.19-19.88,53.1Z"/>
    <path class="cls-1" d="m985.47,114.79c-.43,1.08-.81,2.16-1.26,3.21-27.15,63.46-54.2,126.97-81.59,190.32-3.92,9.07-8.97,17.8-14.53,25.99-6.82,10.05-16.37,16.91-28.77,18.82-10.97,1.69-23.14-5.03-28.75-14.53-5.08-8.6,1.38-27.87,13.64-29.06,7.87-.76,18.77,5.2,21.13,12.76.62,1.99.31,4.43-.12,6.55-.52,2.58-1.48,5.1,1.06,7.06,2.44,1.88,5.16,1.14,7.16-.47,3.8-3.06,7.86-6.11,10.67-9.99,4.06-5.6,7.49-11.74,10.47-17.99,4.66-9.75,8.78-19.75,12.94-29.73.52-1.24.24-3.13-.31-4.46-21.31-51.52-42.69-103.01-64.06-154.51-.53-1.28-1.04-2.57-1.74-4.33,1.4-.08,2.5-.21,3.61-.21,11.58-.01,23.15.08,34.73-.08,2.63-.04,3.72.93,4.67,3.23,14.17,34.67,28.43,69.3,42.67,103.93.52,1.27,1.07,2.52,1.94,4.57.84-1.7,1.41-2.74,1.88-3.82,14.93-34.35,29.86-68.7,44.78-103.05,2.34-5.39,3.46-5.9,9.77-4.21Z"/>
  </g>
  <path class="cls-1" d="m141.82,0c.32,2.27.69,4.49.93,6.72,6.52,60.25,11.49,84.4,18.02,144.65,8.11,74.87-10.45,51.59-10.69,49.27-7.51-73.37-13.44-110.63-20.97-183.99-1.18-11.51.25-13.47,12.71-16.65Z"/>
  <path class="cls-1" d="m51.65,106.72c4.09-.13,8.16.07,12.11.54,6.05.73,12.07,2.03,17.98,3.47,8.9,2.16,16.13,7.43,21.41,15,7.26,10.4,5.35,23.51-4.29,30.65-6.31,4.67-13.5,4.31-19.36-.95-4.62-4.15-7.62-9.2-8.74-15.33-1.07-5.83.66-9.45,5.84-12.19,3.46-1.83,3.64-3.31.62-5.91-4.16-3.58-9.28-4.74-14.5-5.56-10.36-1.64-20.31-1.24-29.06,5.61-12.13,9.51-11.4,26.79,2.17,33.96,9.99,5.28,20.76,9.1,31.22,13.47,6.12,2.56,12.46,4.63,18.45,7.45,23.45,11.06,33.27,30.98,28.31,56.4-4.24,21.78-17.74,34.47-38.74,39.82-16.63,4.24-33.2,3.82-49.3-2.28-12.89-4.88-21.79-13.85-25.07-27.55-1.26-5.28-.85-10.67,1.38-15.74,3.21-7.29,9.08-11.11,16.84-11.49,2.47-.12,6.03.99,7.99,2.5,7.63,5.87,10.57,14.04,9.85,23.5-.28,3.71-2.11,6.78-5.29,9.05-2.63,1.88-2.71,5.31-.3,7.46,2.94,2.63,6.5,5.27,10.22,6.23,12.99,3.37,25.77,1.81,37.87-3.98,5.37-2.57,9.16-7.04,11.73-12.38,4.98-10.35,1.86-22.31-8.56-28.1-8.83-4.91-18.49-8.38-27.9-12.2-7.63-3.09-15.54-5.53-23.16-8.64C.37,186.88-9.05,148.13,12.77,122.98c9.68-11.16,24.35-15.8,38.87-16.27Z"/>
</svg>